<?xml version="1.0" encoding="UTF-8" standalone="no"?>
<!-- Created with Inkscape (http://www.inkscape.org/) -->

<svg
   width="120.38mm"
   height="120.38mm"
   version="1.1"
   viewBox="0 0 120.38 120.38"
   id="svg1029"
   sodipodi:docname="scissors.svg"
   inkscape:version="1.1.2 (1:1.1+202202050950+0a00cf5339)"
   xmlns:inkscape="http://www.inkscape.org/namespaces/inkscape"
   xmlns:sodipodi="http://sodipodi.sourceforge.net/DTD/sodipodi-0.dtd"
   xmlns="http://www.w3.org/2000/svg"
   xmlns:svg="http://www.w3.org/2000/svg">
  <sodipodi:namedview
     id="namedview1031"
     pagecolor="#505050"
     bordercolor="#eeeeee"
     borderopacity="1"
     inkscape:pageshadow="0"
     inkscape:pageopacity="0"
     inkscape:pagecheckerboard="0"
     inkscape:document-units="mm"
     showgrid="false"
     inkscape:zoom="1.5297392"
     inkscape:cx="189.24795"
     inkscape:cy="227.48976"
     inkscape:window-width="1918"
     inkscape:window-height="878"
     inkscape:window-x="0"
     inkscape:window-y="24"
     inkscape:window-maximized="1"
     inkscape:current-layer="g1023" />
  <defs
     id="defs999">
    <style
       id="style997">.cls-1{isolation:isolate;}.cls-2{fill:#cfdfff;}.cls-3{opacity:0.3;mix-blend-mode:multiply;}.cls-4{fill:#fff;}.cls-5{fill:#ffe84a;}.cls-5,.cls-6,.cls-7,.cls-8{stroke:#231f20;stroke-width:9.33px;}.cls-5,.cls-7,.cls-8{stroke-miterlimit:10;}.cls-6{fill:none;stroke-linecap:round;stroke-linejoin:round;}.cls-7{fill:#00e1d4;}.cls-8{fill:#f1baf5;}</style>
  </defs>
  <g
     transform="translate(-118.62,-150.04)"
     id="g1027">
    <g
       transform="matrix(0.26458,0,0,0.26458,-80.021,-36.708)"
       style="isolation:isolate"
       data-name="Layer 1"
       id="g1025">
      <g
         transform="translate(0.002589,0.0024341)"
         id="g1023">
        <circle
           class="cls-4"
           cx="978.25"
           cy="933.33002"
           r="227.5"
           id="circle1001" />
        <circle
           class="cls-8"
           cx="978.25"
           cy="933.33002"
           r="208"
           fill="#dcccbb"
           id="circle1003"
           style="fill:#dcccbb;fill-opacity:1" />
        <path
           class="cls-4"
           d="m 1048.7,794.86 a 19.71,19.71 0 0 0 -22.27,16.79 L 1010.71,919.49 995.04,812 a 19.72,19.72 0 0 0 -39,5.45 L 967.46,899 a 21,21 0 0 0 -34.62,15.91 v 18.93 a 21,21 0 0 0 -41.94,0 v 56.86 c 0,41.89 31.61,78.46 73.41,81.16 43.06,2.79 83.87,-29.71 83.87,-80.68 0,-67.31 0,-44.82 17.3,-174 a 19.71,19.71 0 0 0 -16.78,-22.32 z"
           id="path1005" />
        <path
           class="cls-6"
           d="m 994.89,991.15 a 35,35 0 0 0 -35,35 v 10.36"
           id="path1007" />
        <path
           class="cls-6"
           d="m 1048.7,794.86 a 19.71,19.71 0 0 0 -22.27,16.79 L 1010.71,919.49 995.04,812 a 19.72,19.72 0 0 0 -39,5.45 L 967.46,899 a 21,21 0 0 0 -34.62,15.91 v 18.93 a 21,21 0 0 0 -41.94,0 v 56.86 c 0,41.89 31.61,78.46 73.41,81.16 43.06,2.79 83.87,-29.71 83.87,-80.68 0,-67.31 0,-44.82 17.3,-174 a 19.71,19.71 0 0 0 -16.78,-22.32 z"
           id="path1009" />
        <path
           class="cls-4"
           d="m 911.83,912.84 a 21,21 0 0 0 -21,21 v 25.61 a 21,21 0 0 0 21,21 21,21 0 0 0 21,-21 v -25.64 a 21,21 0 0 0 -21,-20.97 z"
           id="path1011" />
        <path
           class="cls-4"
           d="m 953.77,893.91 a 21,21 0 0 0 -21,21 v 44.54 a 21,21 0 0 0 21,21 21,21 0 0 0 21,-21 v -44.57 a 21,21 0 0 0 -21,-20.97 z"
           id="path1013" />
        <path
           class="cls-6"
           d="m 911.83,912.84 a 21,21 0 0 0 -21,21 v 25.61 a 21,21 0 0 0 21,21 21,21 0 0 0 21,-21 v -25.64 a 21,21 0 0 0 -21,-20.97 z"
           id="path1015" />
        <path
           class="cls-6"
           d="m 953.77,893.91 a 21,21 0 0 0 -21,21 v 44.54 a 21,21 0 0 0 21,21 21,21 0 0 0 21,-21 v -44.57 a 21,21 0 0 0 -21,-20.97 z"
           id="path1017" />
        <path
           class="cls-4"
           d="m 1048.1,991.15 a 40.92,40.92 0 0 0 -40.92,-40.92 h -63.72 a 10.84,10.84 0 0 0 -10.85,10.84 30.08,30.08 0 0 0 30.08,30.08 h 32.16"
           id="path1019" />
        <path
           class="cls-6"
           d="m 1048.1,991.15 a 40.92,40.92 0 0 0 -40.92,-40.92 h -63.72 a 10.84,10.84 0 0 0 -10.85,10.84 30.08,30.08 0 0 0 30.08,30.08 h 32.16"
           id="path1021" />
      </g>
    </g>
  </g>
</svg>
